<svg width="34" height="36" viewBox="0 0 34 36" fill="none" xmlns="http://www.w3.org/2000/svg">
<g clip-path="url(#clip0_238_408)">
<path d="M28.3332 25.9347C28.8789 25.9349 29.4036 26.1528 29.7985 26.5432C30.1935 26.9335 30.4284 27.4664 30.4547 28.0314C30.4809 28.5964 30.2964 29.1502 29.9394 29.578C29.5824 30.0058 29.0803 30.2749 28.5372 30.3295L28.3332 30.3398H5.6665C5.12078 30.3395 4.59608 30.1216 4.20112 29.7313C3.80617 29.3409 3.57124 28.8081 3.54501 28.2431C3.51879 27.6781 3.70328 27.1243 4.06025 26.6965C4.41723 26.2686 4.91933 25.9995 5.4625 25.9449L5.6665 25.9347H28.3332ZM28.3332 15.6561C28.8968 15.6561 29.4373 15.8881 29.8358 16.3012C30.2343 16.7142 30.4582 17.2745 30.4582 17.8586C30.4582 18.4428 30.2343 19.003 29.8358 19.4161C29.4373 19.8291 28.8968 20.0612 28.3332 20.0612H5.6665C5.10292 20.0612 4.56242 19.8291 4.1639 19.4161C3.76539 19.003 3.5415 18.4428 3.5415 17.8586C3.5415 17.2745 3.76539 16.7142 4.1639 16.3012C4.56242 15.8881 5.10292 15.6561 5.6665 15.6561H28.3332ZM28.3332 5.37744C28.8968 5.37744 29.4373 5.6095 29.8358 6.02256C30.2343 6.43562 30.4582 6.99585 30.4582 7.58C30.4582 8.16416 30.2343 8.72439 29.8358 9.13745C29.4373 9.55051 28.8968 9.78256 28.3332 9.78256H5.6665C5.10292 9.78256 4.56242 9.55051 4.1639 9.13745C3.76539 8.72439 3.5415 8.16416 3.5415 7.58C3.5415 6.99585 3.76539 6.43562 4.1639 6.02256C4.56242 5.6095 5.10292 5.37744 5.6665 5.37744H28.3332Z" fill="white"/>
</g>
<defs>
<clipPath id="clip0_238_408">
<rect width="34" height="35.241" fill="white" transform="translate(0 0.238159)"/>
</clipPath>
</defs>
</svg>
