<svg width="27" height="29" viewBox="0 0 27 29" fill="none" xmlns="http://www.w3.org/2000/svg">
<path d="M26.402 0.664333C26.2125 0.46042 25.9875 0.298642 25.7397 0.188262C25.492 0.0778812 25.2264 0.0210644 24.9582 0.0210644C24.69 0.0210644 24.4244 0.0778812 24.1766 0.188262C23.9289 0.298642 23.7038 0.46042 23.5144 0.664333L13.5 11.3985L3.48562 0.642336C3.29602 0.438691 3.07093 0.27715 2.8232 0.166937C2.57548 0.056725 2.30997 2.14576e-09 2.04183 0C1.77369 -2.14576e-09 1.50818 0.056725 1.26045 0.166937C1.01273 0.27715 0.787639 0.438691 0.598037 0.642336C0.408436 0.845982 0.258036 1.08775 0.155424 1.35382C0.0528129 1.6199 -1.99777e-09 1.90508 0 2.19308C1.99778e-09 2.48107 0.0528129 2.76625 0.155424 3.03233C0.258036 3.29841 0.408436 3.54017 0.598037 3.74381L10.6124 14.5L0.598037 25.2562C0.408436 25.4598 0.258036 25.7016 0.155424 25.9677C0.0528129 26.2338 0 26.5189 0 26.8069C0 27.0949 0.0528129 27.3801 0.155424 27.6462C0.258036 27.9123 0.408436 28.154 0.598037 28.3577C0.787639 28.5613 1.01273 28.7229 1.26045 28.8331C1.50818 28.9433 1.77369 29 2.04183 29C2.30997 29 2.57548 28.9433 2.8232 28.8331C3.07093 28.7229 3.29602 28.5613 3.48562 28.3577L13.5 17.6015L23.5144 28.3577C23.704 28.5613 23.9291 28.7229 24.1768 28.8331C24.4245 28.9433 24.69 29 24.9582 29C25.2263 29 25.4918 28.9433 25.7395 28.8331C25.9873 28.7229 26.2124 28.5613 26.402 28.3577C26.5916 28.154 26.742 27.9123 26.8446 27.6462C26.9472 27.3801 27 27.0949 27 26.8069C27 26.5189 26.9472 26.2338 26.8446 25.9677C26.742 25.7016 26.5916 25.4598 26.402 25.2562L16.3876 14.5L26.402 3.74381C27.1802 2.90796 27.1802 1.50019 26.402 0.664333Z" fill="white"/>
</svg>
